<?xml version="1.0" encoding="UTF-8" standalone="no"?>
<!DOCTYPE svg PUBLIC "-//W3C//DTD SVG 1.1//EN" "http://www.w3.org/Graphics/SVG/1.1/DTD/svg11.dtd">
<svg width="100%" height="100%" viewBox="0 0 204 127" version="1.1" xmlns="http://www.w3.org/2000/svg" xmlns:xlink="http://www.w3.org/1999/xlink" xml:space="preserve" xmlns:serif="http://www.serif.com/" style="fill-rule:evenodd;clip-rule:evenodd;stroke-linejoin:round;stroke-miterlimit:1.41421;">
    <g id="Artboard1" transform="matrix(1,0,0,1,-10.9356,-25.7278)">
        <rect x="10.936" y="25.728" width="203.332" height="126.521" style="fill:none;"/>
        <g id="Layer2" transform="matrix(1,0,0,1,-34.0644,10.7278)">
            <g transform="matrix(2.01476,0,0,2.01476,32.1073,-87.3813)">
                <path d="M27.05,111.861L19.082,111.861L32.981,87.787L32.981,105.929C32.981,109.203 30.324,111.861 27.05,111.861ZM9.254,83.222L9.254,58.257C9.254,55.26 11.482,52.78 14.37,52.381L31.348,81.787L14.095,111.669C14.079,111.697 14.065,111.724 14.052,111.752C11.32,111.223 9.254,108.815 9.254,105.929L9.254,93.631L11.581,100.317L9.85,90.319L18.487,99.452L11.879,88.407L19.36,86.771L11.766,84.903L18.084,66.825L10.844,82.172L12.668,68.126L9.254,83.222ZM27.05,52.326C30.323,52.326 32.981,54.984 32.981,58.257L32.981,75.787L19.436,52.326L27.05,52.326Z" style="fill:rgb(67,135,146);"/>
            </g>
            <g transform="matrix(0.895369,0,0,0.927541,39.4378,4.66102)">
                <g transform="matrix(1.87462,0,0,1.87462,-150.723,-222.322)">
                    <path d="M132.96,163.78L121.085,144.989C121.085,144.989 120.367,135.209 121.968,132.14C123.569,129.072 130.594,123.457 136.549,132.543C136.823,141.201 136.83,141.522 136.83,141.522L133.226,141.263C133.226,141.263 133.453,135.482 132.244,133.717C131.034,131.952 125.749,130.676 125.338,136.064C124.926,141.452 125.29,143.814 125.29,143.814L137.239,163.249C137.239,163.249 137.934,174.534 135.99,177.393C134.045,180.251 125.883,183.124 122.124,176.102C120.633,171.813 121.676,166.649 121.676,166.649L125.396,166.765C125.396,166.765 124.304,176.095 128.704,176.171C133.104,176.247 133.961,171.533 132.96,163.78Z" style="fill:rgb(67,135,146);"/>
                </g>
                <g transform="matrix(1.87462,0,0,1.87462,-150.723,-222.322)">
                    <path d="M145.741,133.006L141.021,132.961L140.838,127.915L155.007,127.904L155.046,133.129L149.834,132.879L149.691,180.439L145.816,180.76L145.741,133.006Z" style="fill:rgb(67,135,146);"/>
                </g>
                <g transform="matrix(1.87462,0,0,1.87462,-150.723,-222.322)">
                    <path d="M163.33,180.533L163.505,162.666L172.075,162.65L171.919,180.379L175.958,180.52L175.892,132.65C175.892,132.65 168.258,121.299 159.467,132.523C159.531,145.781 159.604,180.516 159.604,180.516L163.33,180.533ZM163.418,158.634L163.41,133.328C163.41,133.328 167.025,127.707 172.286,133.365C172.016,143.213 172.02,158.421 172.02,158.421L163.418,158.634Z" style="fill:rgb(67,135,146);"/>
                </g>
                <g transform="matrix(1.87462,0,0,1.87462,-150.723,-222.322)">
                    <ellipse cx="137.092" cy="179.153" rx="1.088" ry="1.125" style="fill:rgb(67,135,146);"/>
                </g>
                <g transform="matrix(1.87462,0,0,1.87462,-28.3491,-222.511)">
                    <ellipse cx="137.092" cy="179.153" rx="1.088" ry="1.125" style="fill:rgb(67,135,146);"/>
                </g>
                <g transform="matrix(1.87462,0,0,1.87462,-122.142,-222.255)">
                    <ellipse cx="137.092" cy="179.153" rx="1.088" ry="1.125" style="fill:rgb(67,135,146);"/>
                </g>
                <g transform="matrix(1.87462,0,0,1.87462,-73.2748,-222.62)">
                    <ellipse cx="137.092" cy="179.153" rx="1.088" ry="1.125" style="fill:rgb(67,135,146);"/>
                </g>
                <g transform="matrix(1.87462,0,0,1.87462,-150.723,-222.322)">
                    <path d="M183.505,180.456L183.638,127.794L194.67,127.78C194.67,127.78 199.673,128.274 200.05,133.955C200.427,139.636 200.466,150.284 200.095,151.868C199.723,153.452 197.646,155.735 197.646,155.735C197.646,155.735 200.042,158.022 200.21,160.356C200.378,162.691 200.326,180.631 200.326,180.631L195.872,180.71L195.684,161.506C195.684,161.506 195.386,158.874 193.26,158.766C191.135,158.658 188.167,158.758 188.167,158.758L188.262,180.482L183.505,180.456ZM188.369,153.72L188.389,131.895L192.964,131.955C192.964,131.955 195.302,132.975 195.677,135.258C196.051,137.542 196.782,147.678 195.456,150.828C194.13,153.979 191.185,153.814 188.369,153.72Z" style="fill:rgb(67,135,146);"/>
                </g>
            </g>
            <g transform="matrix(0.858832,0,0,0.963974,32.9992,12.7696)">
                <g transform="matrix(1,0,0,1,83.961,128.729)">
                    <text x="0px" y="0px" style="font-family:'LucidaGrande', 'Lucida Grande', sans-serif;font-weight:500;font-size:25px;fill:rgb(67,135,146);">CODING</text>
                </g>
                <g transform="matrix(1,0,0,1,189.637,128.729)">
                    <text x="0px" y="0px" style="font-family:'LucidaGrande', 'Lucida Grande', sans-serif;font-weight:500;font-size:25px;fill:rgb(67,135,146);">LABS</text>
                </g>
            </g>
        </g>
    </g>
</svg>
